<?xml version="1.0" encoding="UTF-8"?>
<svg width="597px" height="239px" viewBox="0 0 597 239" version="1.1" xmlns="http://www.w3.org/2000/svg" xmlns:xlink="http://www.w3.org/1999/xlink">
    <title>Group 2</title>
    <g id="Page-1" stroke="none" stroke-width="1" fill="none" fill-rule="evenodd">
        <g id="Group-2" transform="translate(0.237855, 0.800000)" fill-rule="nonzero">
            <path d="M124.752145,34.97 C128.262145,31.26 131.532145,27.43 135.182145,24.01 C146.492145,13.41 159.422145,5.82 175.072145,3.83 C188.492145,2.12 201.032145,5.11 212.982145,11.25 C227.332145,18.63 238.392145,29.01 244.332145,44.35 C249.192145,56.9 250.492145,69.89 249.312145,83.18 C246.912145,110.29 234.622145,133.05 218.002145,153.89 C201.752145,174.27 183.162145,192.32 163.112145,208.86 C151.422145,218.5 139.142145,227.41 127.182145,236.73 C125.332145,238.17 124.042145,238.22 122.052145,236.79 C102.672145,222.82 84.1121451,207.86 66.6821451,191.49 C53.4521451,179.06 40.9921451,165.95 29.8821451,151.58 C17.3521451,135.39 7.33214506,117.93 2.74214506,97.73 C-0.577854936,83.13 -1.09785494,68.52 2.37214506,53.84 C7.03214506,34.13 18.6421451,20.13 36.6421451,11.11 C46.2121451,6.31 56.1721451,3.2 66.9021451,3.1184122 C79.2821451,3.03 90.6121451,6.77 101.052145,13.33 C109.722145,18.77 117.172145,25.58 123.562145,33.56 C123.962145,34.05 124.382145,34.52 124.752145,34.97 Z" id="Path" fill="#F58466"></path>
            <g id="Group" transform="translate(270.832145, 0.000000)" fill="#FFFFFF">
                <polygon id="Path" points="52.39 35.5 52.39 5.91 72.32 5.91 72.32 82.6 52.39 82.6 52.39 51.17 23.6 51.17 23.6 82.6 3.67 82.6 3.67 5.91 23.6 5.91 23.6 35.5"></polygon>
                <g transform="translate(81.070000, 0.000000)">
                    <path d="M19.53,56.56 C19.53,63.17 23.9,68.26 31.43,68.26 C38.96,68.26 43.33,63.18 43.33,56.56 C43.33,50.15 38.96,44.76 31.43,44.76 C23.9,44.76 19.53,50.15 19.53,56.56 M62.86,56.56 C62.86,74.26 48.21,84.33 31.43,84.33 C14.75,84.33 0,74.36 0,56.56 C0,38.76 14.65,28.69 31.43,28.69 C48.21,28.69 62.86,38.76 62.86,56.56" id="Shape"></path>
                    <path d="M89.72,38.96 L89.92,38.96 C93.48,32.55 99.58,29.71 106.8,29.71 L110.36,29.71 L110.36,47.51 C107.82,46.08 105.38,45.78 102.53,45.78 C92.26,45.78 89.72,52.59 89.72,61.54 L89.72,82.59 L71.21,82.59 L71.21,30.41 L89.72,30.41 L89.72,38.96 Z" id="Path"></path>
                    <path d="M137.52,82.6 L119.01,82.6 L119.01,30.42 L137.52,30.42 L137.52,82.6 Z M138.64,10.38 C138.64,16.08 133.96,20.76 128.26,20.76 C122.56,20.76 117.88,16.08 117.88,10.38 C117.88,4.68 122.56,0 128.26,0 C133.96,0 138.64,4.69 138.64,10.38" id="Shape"></path>
                </g>
                <rect id="Rectangle" x="231.82" y="42.32" width="93.73" height="15.26"></rect>
                <polygon id="Path" points="3.26 110.51 3.26 125.87 24.52 125.87 -2.84217094e-14 162.69 52.89 162.69 52.89 147.33 30.92 147.33 55.33 110.51"></polygon>
                <g transform="translate(58.280000, 108.780000)">
                    <path d="M19.54,27.87 C19.54,34.48 23.91,39.57 31.44,39.57 C38.97,39.57 43.34,34.49 43.34,27.87 C43.34,21.46 38.97,16.07 31.44,16.07 C23.91,16.07 19.54,21.46 19.54,27.87 M62.86,27.87 C62.86,45.57 48.21,55.64 31.43,55.64 C14.75,55.64 0,45.67 0,27.87 C0,10.07 14.65,0 31.43,0 C48.21,0 62.86,10.07 62.86,27.87" id="Shape"></path>
                    <path d="M89.72,8.45 L89.92,8.45 C94.19,2.14 99.38,0.01 106.6,0.01 C120.64,0.01 126.23,8.86 126.23,21.67 L126.23,53.91 L107.72,53.91 L107.72,28.48 C107.72,23.5 108.53,14.75 99.38,14.75 C91.85,14.75 89.72,20.35 89.72,26.86 L89.72,53.91 L71.21,53.91 L71.21,1.73 L89.72,1.73 L89.72,8.45 Z" id="Path"></path>
                </g>
                <polygon id="Path" points="218.69 162.69 200.18 162.69 200.18 125.77 190.64 125.77 190.64 110.51 200.18 110.51 200.18 94.85 218.69 94.85 218.69 110.51 229.17 110.51 229.17 125.77 218.69 125.77"></polygon>
                <path d="M252.16,136.65 C252.16,143.26 256.53,148.34 264.06,148.34 C271.59,148.34 275.96,143.26 275.96,136.65 C275.96,130.24 271.59,124.85 264.06,124.85 C256.53,124.85 252.16,130.25 252.16,136.65 M293.86,162.69 L275.35,162.69 L275.35,156.89 L275.15,156.89 C271.89,162.08 265.49,164.42 259.38,164.42 C243.92,164.42 233.04,151.5 233.04,136.55 C233.04,121.6 243.72,108.78 259.18,108.78 C265.18,108.78 271.49,111.02 275.36,115.59 L275.36,110.5 L293.87,110.5 L293.87,162.69 L293.86,162.69 Z" id="Shape"></path>
                <rect id="Rectangle" x="306.17" y="78.27" width="18.51" height="84.42"></rect>
            </g>
            <g id="Group" transform="translate(273.932145, 191.730000)" fill="#FFFFFF">
                <path d="M2.84217094e-14,22.57 C2.84217094e-14,9.49 8.93,0 21.58,0 C30.76,0 38.01,4.65 40.93,13.52 L33.67,15.88 C32.06,10.61 28.21,7.01 21.64,7.01 C13.45,7.01 7.56,13.77 7.56,22.64 C7.56,31.94 13.7,38.2 21.82,38.2 C28.52,38.2 32.11,34.48 33.6,30.14 L40.73,32.5 C37.69,40.44 31.37,45.15 21.69,45.15 C9.12,45.14 2.84217094e-14,36.27 2.84217094e-14,22.57 Z" id="Path"></path>
                <path d="M45.65,35.65 C45.65,31.12 48.01,26.78 57.87,25.42 L64.51,24.49 L64.51,24.12 C64.51,20.59 62.77,18.48 58.8,18.48 C54.89,18.48 53.16,20.34 52.66,23.5 L46.09,21.89 C47.76,15.75 51.67,12.53 59.05,12.53 C65.93,12.53 71.95,15.94 71.95,24 L71.95,44.34 L65.69,44.34 L64.88,41.55 C63.64,43.29 61.22,45.21 56.26,45.21 C50.43,45.2 45.65,41.54 45.65,35.65 Z M64.5,33.48 L64.5,29.88 L58.36,30.81 C54.52,31.37 52.78,32.67 52.78,35.21 C52.78,37.57 54.83,39.1800375 58.24,39.1800375 C61.59,39.19 64.5,37.2 64.5,33.48 Z" id="Shape"></path>
                <path d="M78.77,13.39 L84.91,13.39 L85.96,16.99 C87.26,14.76 89.87,12.53 93.77,12.53 C96.25,12.53 98.11,13.27 99.1,14.02 L96.43,20.53 C95.81,20.03 94.51,19.48 92.71,19.48 C89.11,19.48 86.2,22.33 86.2,27.48 L86.2,44.35 L78.76,44.35 L78.76,13.39 L78.77,13.39 Z" id="Path"></path>
                <path d="M107.42,31.31 C107.73,35.22 111.08,39.06 115.98,39.06 C120.32,39.06 122.8,36.46 123.55,34.35 L129.81,36.27 C128.01,41.23 123.55,45.2 115.98,45.2 C107.11,45.2 100.29,38.38 100.29,28.83 C100.29,19.47 107.11,12.52 115.92,12.52 C124.91,12.52 130.55,19.03 130.55,28.46 L130.55,31.31 L107.42,31.31 L107.42,31.31 Z M115.98,18.66 C110.96,18.66 108.17,22.07 107.48,25.61 L123.98,25.61 C123.79,22.82 121.31,18.66 115.98,18.66 Z" id="Shape"></path>
                <path d="M135.02,35.96 L141.59,33.85 C142.33,36.58 143.95,39 147.92,39 C151.27,39 153.44,37.7 153.44,35.47 C153.44,33.92 152.45,32.62 147.73,31.81 C141.28,30.63 135.89,28.65 135.89,22.2 C135.89,16.87 140.42,12.53 147.92,12.53 C154.12,12.53 158.4,15.82 159.7,21.4 L153.19,23.26 C152.63,21.03 151.33,18.73 147.92,18.73 C144.39,18.73 142.84,20.28 142.84,21.89 C142.84,24 145.07,24.74 149.04,25.49 C155.92,26.73 160.45,29.15 160.45,35.35 C160.45,40.87 155.55,45.21 147.92,45.21 C141.16,45.2 136.57,41.73 135.02,35.96 Z" id="Path"></path>
            </g>
        </g>
    </g>
</svg>