<?xml version="1.0" encoding="UTF-8"?>
<svg width="602px" height="239px" viewBox="0 0 602 239" version="1.1" xmlns="http://www.w3.org/2000/svg" xmlns:xlink="http://www.w3.org/1999/xlink">
    <title>Group 2</title>
    <g id="Page-1" stroke="none" stroke-width="1" fill="none" fill-rule="evenodd">
        <g id="Group-2" transform="translate(0.237855, 0.800000)" fill-rule="nonzero">
            <path d="M124.752145,34.97 C128.262145,31.26 131.532145,27.43 135.182145,24.01 C146.492145,13.41 159.422145,5.82 175.072145,3.83 C188.492145,2.12 201.032145,5.11 212.982145,11.25 C227.332145,18.63 238.392145,29.01 244.332145,44.35 C249.192145,56.9 250.492145,69.89 249.312145,83.18 C246.912145,110.29 234.622145,133.05 218.002145,153.89 C201.752145,174.27 183.162145,192.32 163.112145,208.86 C151.422145,218.5 139.142145,227.41 127.182145,236.73 C125.332145,238.17 124.042145,238.22 122.052145,236.79 C102.672145,222.82 84.1121451,207.86 66.6821451,191.49 C53.4521451,179.06 40.9921451,165.95 29.8821451,151.58 C17.3521451,135.39 7.33214506,117.93 2.74214506,97.73 C-0.577854934,83.13 -1.09785494,68.52 2.37214506,53.84 C7.03214506,34.13 18.6421451,20.13 36.6421451,11.11 C46.2121451,6.31 56.1721451,3.2 66.9021451,3.11687932 C79.2821451,3.03 90.6121451,6.77 101.052145,13.33 C109.722145,18.77 117.172145,25.58 123.562145,33.56 C123.962145,34.05 124.382145,34.52 124.752145,34.97 Z" id="Path" fill="#F58466"></path>
            <path d="M328.222145,35.5 L328.222145,5.91 L348.152145,5.91 L348.152145,82.6 L328.222145,82.6 L328.222145,51.17 L299.432145,51.17 L299.432145,82.6 L279.502145,82.6 L279.502145,5.91 L299.432145,5.91 L299.432145,35.5 L328.222145,35.5 Z M376.432145,56.56 C376.432145,63.17 380.802145,68.26 388.332145,68.26 C395.862145,68.26 400.232145,63.18 400.232145,56.56 C400.232145,50.15 395.862145,44.76 388.332145,44.76 C380.802145,44.76 376.432145,50.15 376.432145,56.56 M419.762145,56.56 C419.762145,74.26 405.112145,84.33 388.332145,84.33 C371.652145,84.33 356.902145,74.36 356.902145,56.56 C356.902145,38.76 371.552145,28.69 388.332145,28.69 C405.112145,28.69 419.762145,38.76 419.762145,56.56 M446.622145,38.96 L446.822145,38.96 C450.382145,32.55 456.482145,29.71 463.702145,29.71 L467.262145,29.71 L467.262145,47.51 C464.722145,46.08 462.282145,45.78 459.432145,45.78 C449.162145,45.78 446.622145,52.59 446.622145,61.54 L446.622145,82.59 L428.112145,82.59 L428.112145,30.41 L446.622145,30.41 L446.622145,38.96 Z M494.422145,82.6 L475.912145,82.6 L475.912145,30.42 L494.422145,30.42 L494.422145,82.6 Z M495.542145,10.38 C495.542145,16.08 490.862145,20.76 485.162145,20.76 C479.462145,20.76 474.782145,16.08 474.782145,10.38 C474.782145,4.68 479.462145,0 485.162145,0 C490.862145,0 495.542145,4.69 495.542145,10.38 M507.652145,42.32 L601.382145,42.32 L601.382145,57.58 L507.652145,57.58 Z M279.092145,110.51 L279.092145,125.87 L300.352145,125.87 L275.832145,162.69 L328.722145,162.69 L328.722145,147.33 L306.752145,147.33 L331.162145,110.51 L279.092145,110.51 Z M353.652145,136.65 C353.652145,143.26 358.022145,148.35 365.552145,148.35 C373.082145,148.35 377.452145,143.27 377.452145,136.65 C377.452145,130.24 373.082145,124.85 365.552145,124.85 C358.022145,124.85 353.652145,130.24 353.652145,136.65 M396.972145,136.65 C396.972145,154.35 382.322145,164.42 365.542145,164.42 C348.862145,164.42 334.112145,154.45 334.112145,136.65 C334.112145,118.85 348.762145,108.78 365.542145,108.78 C382.322145,108.78 396.972145,118.85 396.972145,136.65 M423.832145,117.23 L424.032145,117.23 C428.302145,110.92 433.492145,108.79 440.712145,108.79 C454.752145,108.79 460.342145,117.64 460.342145,130.45 L460.342145,162.69 L441.832145,162.69 L441.832145,137.26 C441.832145,132.28 442.642145,123.53 433.492145,123.53 C425.962145,123.53 423.832145,129.13 423.832145,135.64 L423.832145,162.69 L405.322145,162.69 L405.322145,110.51 L423.832145,110.51 L423.832145,117.23 Z M494.522145,162.69 L476.012145,162.69 L476.012145,125.77 L466.472145,125.77 L466.472145,110.51 L476.012145,110.51 L476.012145,94.85 L494.522145,94.85 L494.522145,110.51 L505.002145,110.51 L505.002145,125.77 L494.522145,125.77 L494.522145,162.69 Z M527.992145,136.65 C527.992145,143.26 532.362145,148.34 539.892145,148.34 C547.422145,148.34 551.792145,143.26 551.792145,136.65 C551.792145,130.24 547.422145,124.85 539.892145,124.85 C532.362145,124.85 527.992145,130.25 527.992145,136.65 M569.692145,162.69 L551.182145,162.69 L551.182145,156.89 L550.982145,156.89 C547.722145,162.08 541.322145,164.42 535.212145,164.42 C519.752145,164.42 508.872145,151.5 508.872145,136.55 C508.872145,121.6 519.552145,108.78 535.012145,108.78 C541.012145,108.78 547.322145,111.02 551.192145,115.59 L551.192145,110.5 L569.702145,110.5 L569.702145,162.69 L569.692145,162.69 Z M582.002145,78.27 L600.512145,78.27 L600.512145,162.69 L582.002145,162.69 Z M278.932145,214.3 C278.932145,201.22 287.862145,191.73 300.512145,191.73 C309.692145,191.73 316.942145,196.38 319.862145,205.25 L312.602145,207.61 C310.992145,202.34 307.142145,198.74 300.572145,198.74 C292.382145,198.74 286.492145,205.5 286.492145,214.37 C286.492145,223.67 292.632145,229.93 300.752145,229.93 C307.452145,229.93 311.042145,226.21 312.532145,221.87 L319.662145,224.23 C316.622145,232.17 310.302145,236.88 300.622145,236.88 C288.052145,236.87 278.932145,228 278.932145,214.3 Z M324.582145,227.38 C324.582145,222.85 326.942145,218.51 336.802145,217.15 L343.442145,216.22 L343.442145,215.85 C343.442145,212.32 341.702145,210.21 337.732145,210.21 C333.822145,210.21 332.092145,212.07 331.592145,215.23 L325.022145,213.62 C326.692145,207.48 330.602145,204.26 337.982145,204.26 C344.862145,204.26 350.882145,207.67 350.882145,215.73 L350.882145,236.07 L344.622145,236.07 L343.812145,233.28 C342.572145,235.02 340.152145,236.94 335.192145,236.94 C329.362145,236.93 324.582145,233.27 324.582145,227.38 Z M343.432145,225.21 L343.432145,221.61 L337.292145,222.54 C333.452145,223.1 331.712145,224.4 331.712145,226.94 C331.712145,229.3 333.762145,230.910075 337.172145,230.910075 C340.522145,230.92 343.432145,228.93 343.432145,225.21 Z M357.702145,205.12 L363.842145,205.12 L364.892145,208.72 C366.192145,206.49 368.802145,204.26 372.702145,204.26 C375.182145,204.26 377.042145,205 378.032145,205.75 L375.362145,212.26 C374.742145,211.76 373.442145,211.21 371.642145,211.21 C368.042145,211.21 365.132145,214.06 365.132145,219.21 L365.132145,236.08 L357.692145,236.08 L357.692145,205.12 L357.702145,205.12 Z M386.352145,223.04 C386.662145,226.95 390.012145,230.79 394.912145,230.79 C399.252145,230.79 401.732145,228.19 402.482145,226.08 L408.742145,228 C406.942145,232.96 402.482145,236.93 394.912145,236.93 C386.042145,236.93 379.222145,230.11 379.222145,220.56 C379.222145,211.2 386.042145,204.25 394.852145,204.25 C403.842145,204.25 409.482145,210.76 409.482145,220.19 L409.482145,223.04 L386.352145,223.04 L386.352145,223.04 Z M394.912145,210.39 C389.892145,210.39 387.102145,213.8 386.412145,217.34 L402.912145,217.34 C402.722145,214.55 400.242145,210.39 394.912145,210.39 Z M413.952145,227.69 L420.522145,225.58 C421.262145,228.31 422.882145,230.73 426.852145,230.73 C430.202145,230.73 432.372145,229.43 432.372145,227.2 C432.372145,225.65 431.382145,224.35 426.662145,223.54 C420.212145,222.36 414.822145,220.38 414.822145,213.93 C414.822145,208.6 419.352145,204.26 426.852145,204.26 C433.052145,204.26 437.332145,207.55 438.632145,213.13 L432.122145,214.99 C431.562145,212.76 430.262145,210.46 426.852145,210.46 C423.322145,210.46 421.772145,212.01 421.772145,213.62 C421.772145,215.73 424.002145,216.47 427.972145,217.22 C434.852145,218.46 439.382145,220.88 439.382145,227.08 C439.382145,232.6 434.482145,236.94 426.852145,236.94 C420.092145,236.93 415.502145,233.46 413.952145,227.69 Z" id="Combined-Shape" fill="#000000"></path>
        </g>
    </g>
</svg>