<?xml version="1.0" encoding="UTF-8"?>
<svg width="398px" height="643px" viewBox="0 0 398 643" version="1.1" xmlns="http://www.w3.org/2000/svg" xmlns:xlink="http://www.w3.org/1999/xlink">
    <title>Group</title>
    <g id="Page-1" stroke="none" stroke-width="1" fill="none" fill-rule="evenodd">
        <g id="A0" transform="translate(-2275.000000, -528.000000)">
            <g id="Group" transform="translate(2275.000000, 528.000000)">
                <polygon id="Fill-215" fill="#292927" points="298.29497 343 298.29497 395.546268 99.699 395.546268 99.699 343 0 343 0 643 99.699 643 99.699 590.447684 298.29497 590.447684 298.29497 643 398 643 398 343"></polygon>
                <path d="M100.654019,0 C92.8182635,0.0504077453 85.0006468,0.954462641 77.4006899,2.7203832 C52.9139553,8.40990201 31.0996002,23.0917535 18.2637144,42.751934 C8.78946423,57.2529745 4.20651489,74.152774 4.00699335,90.9802491 C3.80747181,107.813751 7.88859424,124.562875 14.7932488,140.203025 C28.6146501,171.47127 53.2223068,197.803376 79.0452311,222.104371 C115.890209,256.77789 156.078684,288.582541 199,317 C241.921316,288.582541 282.07956,256.77789 318.924538,222.104371 C344.747463,197.803376 369.38535,171.47127 383.206751,140.203025 C390.111406,124.562875 394.192528,107.813751 393.993007,90.9802491 C393.793485,74.152774 389.210536,57.2529745 379.742332,42.751934 C366.9004,23.0917535 345.092091,8.40990201 320.59931,2.7203832 C293.585303,-3.5597848 263.663118,1.21362504 240.700002,15.4976924 C217.73084,29.7757327 199,54.9807832 199,54.9807832 C199,54.9807832 180.26916,29.7757327 157.306044,15.4976924 C140.794125,5.23365581 120.684772,-0.124376201 100.654019,0" id="Fill-216" fill="#E67C62"></path>
            </g>
        </g>
    </g>
</svg>